# Blender3D v249 OBJ File: asteroid high.blend
# www.blender3d.org
mtllib asteroid.mtl
v 1.022617 -0.538881 0.615660
v 0.980452 -0.953688 -0.200724
v 0.528854 -1.036665 -0.155203
v 0.811376 -1.138994 -0.620717
v -0.074142 -0.748052 1.014547
v 0.178020 -0.953390 0.432929
v 0.035266 -0.964769 -0.455650
v 0.338609 -1.027222 -0.852530
v -0.490935 -0.816087 -0.753735
v -0.494855 -0.833252 0.859715
v -0.528658 -0.991439 -0.047935
v -0.987195 -0.854396 -0.125633
v -0.678031 1.125494 -0.585565
v 0.079913 0.902964 -0.902831
v 0.884327 0.614129 -0.698179
v -0.160102 0.938754 0.056366
v 0.422071 0.838095 -0.207313
v 0.875586 0.912549 0.360243
v -0.301719 0.921350 0.628501
v 0.484638 0.958568 0.618825
v 0.007527 1.015831 0.989800
v 0.656700 0.757251 1.104873
v 0.981967 -0.264016 -0.765441
v 0.992347 0.175821 0.284500
v 0.895411 0.442939 -0.139142
v 0.985422 0.042680 0.974000
v -0.109417 -0.256746 1.116766
v -0.213171 0.202397 1.016044
v -0.599393 -0.296066 0.990901
v -0.902912 0.061633 0.735898
v -1.048814 -0.345970 0.408094
v -0.883060 0.811364 0.181888
v -1.203062 0.242297 -0.351212
v -1.233501 -0.128960 -0.620540
v -0.897083 0.853683 -0.800953
v 0.167397 -0.275665 -1.080266
v -0.286675 -0.233937 -1.098638
v -0.460632 0.461110 -0.906793
v -0.832766 -0.456890 -0.740486
vt 0.589950 0.665871
vt 0.658830 0.584651
vt 0.757637 1.058121
vt 0.866819 0.999909
vt 0.970960 0.924998
vt 0.566210 0.264301
vt 0.530313 0.565926
vt 0.839589 0.467699
vt 0.819841 0.661934
vt 0.996777 0.586752
vt 0.624240 -0.103808
vt 0.903479 0.144928
vt 1.036910 0.451709
vt 1.050381 1.283161
vt 0.647480 1.016731
vt 0.453581 0.792762
vt 0.638826 1.328929
vt 0.399859 1.094450
vt 0.457443 1.299683
vt 0.074026 1.373384
vt 0.191384 1.125147
vt 0.215721 0.807550
vt 0.294501 0.583391
vt 0.276819 1.060237
vt 0.113920 0.953489
vt 0.163609 0.881738
vt 0.208238 0.499862
vt -0.112949 0.491092
vt 0.078397 0.363427
vt -0.060464 0.424919
vt 1.285719 0.136079
vt 1.228671 0.253311
vt 1.166767 -0.069086
vt 1.084031 0.354290
vt -0.268628 0.127532
vt -0.141175 0.223568
vt 0.075998 0.044330
vt -0.411480 -0.073669
vt 0.913360 -0.354849
vt -0.257856 -0.111971
vt 0.145030 0.243589
vt 0.366605 0.403396
vt 0.352000 0.028882
vt 1.179723 1.110785
vt 1.266580 1.209280
vt 1.068981 0.768021
vt 1.429070 0.894951
vt 1.278999 0.728440
vt 1.419419 0.759009
vt 1.119931 0.559300
vt 1.374660 0.548531
vn -0.296752 -0.073217 -0.952144
vn -0.318279 -0.042546 -0.947042
vn -0.629362 -0.579852 -0.517374
vn -0.110330 0.670372 -0.733777
vn -0.107394 0.140206 -0.984281
vn -0.109786 0.143126 -0.983596
vn -0.569996 0.082972 -0.817447
vn -0.406572 -0.355879 -0.841457
vn 0.064526 0.280489 -0.957686
vn -0.011679 -0.506650 -0.862073
vn -0.192883 -0.324535 -0.925998
vn 0.298029 0.163695 -0.940416
vn 0.356908 0.110731 -0.927553
vn 0.397927 -0.181828 -0.899218
vn 0.354444 -0.219450 -0.908962
vn -0.625483 -0.573375 -0.529162
vn -0.926082 0.268354 -0.265250
vn -0.792394 0.608855 0.037522
vn -0.962176 -0.243939 0.121291
vn -0.883949 0.466439 0.032696
vn -0.923987 0.242797 0.295462
vn -0.766870 -0.506596 0.394045
vn -0.984901 -0.041225 0.168138
vn -0.952597 0.114200 0.281990
vn -0.408225 0.549488 0.728982
vn -0.615045 0.314098 0.723230
vn -0.745279 -0.291478 0.599666
vn -0.764336 -0.215240 0.607834
vn -0.281399 -0.278980 0.918142
vn -0.409332 0.273252 0.870506
vn -0.226896 -0.213969 0.950124
vn -0.257306 0.151226 0.954423
vn -0.768368 0.227769 0.598107
vn 0.364693 -0.164495 0.916483
vn -0.204114 0.165533 0.964850
vn -0.146392 0.071551 0.986636
vn 0.157382 -0.107395 0.981681
vn 0.244545 -0.497270 0.832419
vn 0.998471 0.051548 0.019982
vn 0.998140 0.014884 -0.059115
vn 0.910991 0.403147 0.086996
vn 0.945647 0.118747 0.302740
vn 0.978762 0.167300 -0.118469
vn 0.883463 0.177036 -0.433764
vn 0.974517 0.203299 -0.094799
vn 0.993896 0.109453 0.013811
vn 0.998848 0.047695 -0.005198
vn 0.981377 -0.180438 0.065886
vn 0.290699 0.915995 0.276490
vn 0.315778 0.910927 0.265513
vn 0.048716 0.994669 -0.090882
vn -0.255611 0.966186 -0.033878
vn 0.020024 0.989118 -0.145756
vn 0.101584 0.983288 -0.151083
vn 0.238901 0.966998 0.088550
vn -0.371801 0.889729 0.264851
vn 0.176973 0.947664 -0.265731
vn 0.356507 0.930079 -0.088638
vn 0.173277 0.984851 0.006610
vn 0.296315 0.954313 0.038537
vn -0.239022 -0.939300 -0.246140
vn -0.308984 -0.934931 0.174449
vn -0.132185 -0.960304 -0.245648
vn 0.164166 -0.972800 0.163428
vn -0.152739 -0.987567 0.037184
vn -0.250884 -0.967209 -0.039556
vn 0.058412 -0.933130 0.354764
vn -0.162511 -0.986220 0.030981
vn -0.167548 -0.985071 0.039531
vn 0.355521 -0.872343 0.335592
vn 0.318928 -0.841813 0.435472
vn -0.255985 -0.965012 0.056770
vn 0.202527 -0.923454 0.325907
vn 0.204950 -0.876828 0.434934
usemtl Material_asteroid.jpg
s off
f 35/1/1 38/2/1 34/3/1
f 38/2/2 39/4/2 34/3/2
f 39/4/3 9/5/3 34/3/3
f 14/6/4 35/1/4 13/7/4
f 38/2/5 14/6/5 36/8/5
f 38/2/6 35/1/6 14/6/6
f 39/4/7 38/2/7 37/9/7
f 9/5/8 39/4/8 37/9/8
f 37/9/9 38/2/9 36/8/9
f 9/5/10 37/9/10 36/8/10
f 9/5/11 36/8/11 8/10/11
f 15/11/12 36/8/12 14/6/12
f 36/8/13 15/11/13 23/12/13
f 4/13/14 8/10/14 36/8/14
f 4/13/15 36/8/15 23/12/15
f 9/5/16 12/14/16 34/3/16
f 34/3/17 33/15/17 35/1/17
f 32/16/18 13/7/18 35/1/18
f 34/3/19 12/14/19 31/17/19
f 32/16/20 35/1/20 33/15/20
f 32/16/21 33/15/21 30/18/21
f 31/19/22 12/20/22 10/21/22
f 31/17/23 33/15/23 34/3/23
f 31/17/24 30/18/24 33/15/24
f 28/22/25 32/16/25 30/18/25
f 28/22/26 19/23/26 32/16/26
f 10/21/27 29/24/27 31/19/27
f 31/19/28 29/24/28 30/18/28
f 10/21/29 5/25/29 29/24/29
f 30/18/30 29/24/30 28/22/30
f 27/26/31 29/24/31 5/25/31
f 29/24/32 27/26/32 28/22/32
f 21/27/33 19/23/33 28/22/33
f 5/25/34 1/28/34 27/26/34
f 27/26/35 22/29/35 28/22/35
f 21/27/36 28/22/36 22/29/36
f 27/26/37 26/30/37 22/29/37
f 27/26/38 1/28/38 26/30/38
f 26/31/39 1/32/39 24/33/39
f 1/32/40 2/34/40 24/33/40
f 24/35/41 22/29/41 26/36/41
f 24/35/42 18/37/42 22/29/42
f 24/35/43 25/38/43 18/37/43
f 2/34/44 4/13/44 24/33/44
f 23/12/45 25/39/45 24/33/45
f 25/39/46 23/12/46 15/11/46
f 15/11/47 18/37/47 25/40/47
f 24/33/48 4/13/48 23/12/48
f 22/29/49 18/37/49 20/41/49
f 21/27/50 22/29/50 20/41/50
f 16/42/51 21/27/51 20/41/51
f 16/42/52 19/23/52 21/27/52
f 17/43/53 20/41/53 18/37/53
f 17/43/54 16/42/54 20/41/54
f 16/42/55 13/7/55 19/23/55
f 13/7/56 32/16/56 19/23/56
f 18/37/57 15/11/57 17/43/57
f 15/11/58 14/6/58 17/43/58
f 14/6/59 16/42/59 17/43/59
f 13/7/60 16/42/60 14/6/60
f 12/14/61 9/5/61 11/44/61
f 12/14/62 11/44/62 10/45/62
f 7/46/63 11/44/63 9/5/63
f 7/46/64 10/47/64 11/44/64
f 7/46/65 6/48/65 10/47/65
f 9/5/66 8/10/66 7/46/66
f 5/49/67 10/47/67 6/48/67
f 8/10/68 3/50/68 7/46/68
f 6/48/69 7/46/69 3/50/69
f 3/50/70 1/32/70 6/48/70
f 6/48/71 1/32/71 5/51/71
f 4/13/72 3/50/72 8/10/72
f 2/34/73 3/50/73 4/13/73
f 2/34/74 1/32/74 3/50/74
